<?xml version="1.0" encoding="UTF-8" ?>
<!DOCTYPE svg PUBLIC "-//W3C//DTD SVG 1.1//EN" "http://www.w3.org/Graphics/SVG/1.1/DTD/svg11.dtd">
<svg width="200pt" height="200pt" viewBox="0 0 200 200" version="1.1" xmlns="http://www.w3.org/2000/svg">
<g id="#ffffffff">
<path fill="#ffffff" opacity="1.00" d=" M 13.24 12.17 C 15.67 10.20 18.96 9.98 21.96 9.98 C 29.98 10.02 37.99 9.99 46.00 9.99 C 49.38 9.98 53.32 10.59 55.41 13.56 C 57.08 15.64 57.25 18.43 57.26 20.99 C 57.25 27.80 57.23 34.62 57.26 41.44 C 59.91 44.28 62.20 47.42 64.60 50.46 C 92.13 85.56 119.64 120.67 147.17 155.77 C 155.73 155.80 164.30 155.62 172.86 155.85 C 177.88 155.92 183.39 157.26 186.60 161.43 C 189.66 165.19 190.09 170.27 190.01 174.93 C 189.99 179.95 190.00 184.98 190.00 190.00 C 173.64 190.00 157.29 190.00 140.93 190.00 C 136.81 189.94 132.31 188.77 129.69 185.35 C 105.51 153.59 81.42 121.77 57.24 90.01 C 57.25 123.34 57.24 156.67 57.25 190.00 C 54.37 190.00 51.50 190.00 48.63 190.00 C 48.63 182.91 48.63 175.83 48.62 168.74 C 38.62 168.75 28.62 168.74 18.62 168.75 C 18.63 175.82 18.61 182.90 18.63 189.98 C 15.75 190.00 12.88 190.00 10.00 190.00 C 10.00 133.66 10.01 77.31 9.99 20.97 C 9.97 17.80 10.58 14.22 13.24 12.17 M 14.45 18.12 C 14.25 25.41 14.44 32.70 14.37 40.00 C 27.21 40.00 40.04 40.00 52.88 40.00 C 52.83 32.66 52.97 25.33 52.82 17.99 C 52.95 15.92 50.95 14.30 48.95 14.51 C 38.62 14.51 28.28 14.44 17.95 14.55 C 16.01 14.48 14.36 16.20 14.45 18.12 M 18.62 78.75 C 18.62 87.33 18.62 95.91 18.62 104.50 C 28.62 104.51 38.62 104.50 48.63 104.50 C 48.63 95.92 48.63 87.33 48.62 78.74 C 38.62 78.75 28.62 78.74 18.62 78.75 M 18.62 108.75 C 18.62 117.33 18.62 125.91 18.62 134.50 C 28.62 134.51 38.62 134.50 48.63 134.50 C 48.63 125.92 48.63 117.33 48.62 108.74 C 38.62 108.75 28.62 108.74 18.62 108.75 M 18.62 138.75 C 18.62 147.33 18.62 155.91 18.62 164.50 C 28.62 164.51 38.62 164.50 48.63 164.50 C 48.63 155.92 48.63 147.33 48.62 138.74 C 38.62 138.75 28.62 138.74 18.62 138.75 Z" />
<path fill="#ffffff" opacity="1.00" d=" M 98.85 20.02 C 99.81 14.90 104.25 10.96 109.14 9.63 C 115.13 8.08 121.08 11.75 124.54 16.45 C 126.93 19.79 129.05 23.76 128.71 28.00 C 127.78 29.92 125.64 30.81 123.81 31.65 C 122.93 26.53 122.05 20.79 117.52 17.49 C 113.57 14.07 106.67 16.75 106.04 21.93 C 104.90 29.70 110.15 37.25 107.94 45.04 C 106.46 50.78 100.68 54.65 94.99 55.25 C 88.43 55.57 82.53 51.30 79.08 46.00 C 76.62 42.24 74.48 37.76 75.12 33.15 C 76.20 31.46 78.04 30.27 80.02 29.93 C 81.13 36.36 82.62 43.85 88.82 47.37 C 93.23 50.30 100.10 47.33 100.87 42.07 C 101.79 34.61 97.14 27.49 98.85 20.02 Z" />
<path fill="#ffffff" opacity="1.00" d=" M 139.53 36.76 C 141.69 37.91 143.01 40.01 144.03 42.16 C 131.83 51.64 119.52 60.98 107.29 70.42 C 111.20 75.64 115.49 80.60 119.07 86.05 C 118.52 87.96 116.28 88.74 114.85 89.90 C 109.66 83.69 104.93 77.12 99.96 70.74 C 98.78 69.55 99.14 67.54 100.63 66.80 C 113.50 56.66 126.67 46.91 139.53 36.76 Z" />
<path fill="#ffffff" opacity="1.00" d=" M 157.38 67.25 C 158.54 66.44 159.58 65.34 160.97 64.93 C 162.92 66.12 164.00 68.19 165.04 70.15 C 151.32 80.81 137.48 91.31 123.72 101.93 C 121.92 100.45 120.46 98.65 119.37 96.60 C 131.90 86.64 144.75 77.09 157.38 67.25 Z" />
<path fill="#ffffff" opacity="1.00" d=" M 172.18 82.99 C 174.10 81.32 175.69 83.82 176.76 85.15 C 181.73 91.96 188.25 98.41 189.29 107.20 C 190.54 116.27 184.78 124.64 177.64 129.65 C 171.04 134.72 162.09 138.21 153.88 135.10 C 144.46 131.65 139.32 122.44 133.44 114.96 C 133.42 114.47 133.39 113.51 133.37 113.02 C 135.49 110.83 138.07 109.16 140.44 107.26 C 151.04 99.19 161.51 90.95 172.18 82.99 M 141.16 115.59 C 145.06 120.31 148.31 126.21 154.33 128.52 C 160.04 130.98 166.37 128.44 171.21 125.21 C 176.99 121.33 182.67 115.58 182.69 108.14 C 182.78 101.11 177.53 95.90 173.65 90.63 C 162.78 98.90 151.93 107.19 141.16 115.59 Z" />
</g>
</svg>
